<?xml version="1.0" encoding="UTF-8" standalone="no"?>
<svg width="324px" height="65px" viewBox="0 0 324 65" version="1.1" xmlns="http://www.w3.org/2000/svg" xmlns:xlink="http://www.w3.org/1999/xlink" xmlns:sketch="http://www.bohemiancoding.com/sketch/ns">
    <!-- Generator: Sketch 3.3 (11970) - http://www.bohemiancoding.com/sketch -->
    <title>logo-black</title>
    <desc>Created with Sketch.</desc>
    <defs></defs>
    <g id="Welcome" stroke="none" stroke-width="1" fill="none" fill-rule="evenodd" sketch:type="MSPage">
        <g id="Artboard-28" sketch:type="MSArtboardGroup" transform="translate(-87.000000, -27.000000)">
            <g id="logo-black" sketch:type="MSLayerGroup" transform="translate(87.000000, 27.000000)">
                <g id="Page-1" sketch:type="MSShapeGroup">
                    <g id="logos">
                        <g id="logo-80-black">
                            <g id="square-logo">
                                <path d="M2.84210526,1.41304343 L59.6842112,1.41304343 L59.6842112,32.4835444 L3.22374174,32.4835443 L2.84210526,1.41304343 Z" id="background-rectangle" fill="#FFFFFF"></path>
                                <path d="M59.6842106,32.5 L59.6842106,63.5869565 L2.84210524,63.5869565 L3.30456003,30.0853054 L19.7385367,22.4673406 L37.8490838,29.4300418 L59.6842106,15.5434783 L59.6842106,32.5 Z" id="Rectangle-322" fill="#4299FF"></path>
                                <path d="M0.235269804,0.462440211 L61.8111299,0.462440211 L61.8111299,64.4609945 L0.235269804,64.4609945 L0.235269804,0.462440211 L0.235269804,0.462440211 Z M3.40486844,61.1667047 L58.64214,61.1667047 L58.64214,3.75641367 L3.40486844,3.75641367 L3.40486844,61.1667047 L3.40486844,61.1667047 Z" id="Shape" fill="#4299FF"></path>
                            </g>
                            <path d="M57.1074243,58.8758283 L57.1074243,49.7160413 C57.1074243,48.1481385 56.8155235,46.8004906 55.7010813,45.6449691 C54.9312173,44.8473302 53.8170166,44.3796969 52.4370124,44.3796969 C51.1633296,44.3796969 49.8896468,44.8749563 48.9876059,45.8652239 L48.9876059,44.5446997 L45.6174572,44.5446997 L45.6174572,58.8758283 L49.0671053,58.8758283 L49.0671053,50.2113007 C49.0671053,48.2583915 50.287869,47.5981294 51.3757309,47.5981294 C52.4635928,47.5981294 53.6577761,48.2583915 53.6577761,50.2113007 L53.6577761,58.8758283 L57.1074243,58.8758283 L57.1074243,58.8758283 Z M42.5148036,42.0967823 L42.5148036,39.1809803 L38.9590755,39.1809803 L38.9590755,42.0967823 L42.5148036,42.0967823 L42.5148036,42.0967823 Z M42.4618845,58.8758283 L42.4618845,44.9575832 L39.0122363,44.9575832 L39.0122363,58.8758283 L42.4618845,58.8758283 L42.4618845,58.8758283 Z M35.9581522,47.6807564 L35.9581522,44.9575832 L33.4107867,44.9575832 L33.4107867,43.3896804 C33.4107867,42.5644156 33.8087672,42.0970334 34.6315504,42.0970334 L35.9583939,42.0970334 L35.9583939,39.0712296 L33.9948298,39.0712296 C31.1819022,39.0712296 29.9613802,41.1341406 29.9613802,43.1696768 L29.9613802,44.9575832 L28.5284568,44.9575832 L28.5284568,47.6807564 L29.9613802,47.6807564 L29.9613802,58.8758283 L33.4110283,58.8758283 L33.4110283,47.6807564 L35.9581522,47.6807564 L35.9581522,47.6807564 Z" id="Shape" fill="#FFFFFF"></path>
                            <path d="M106.090117,29.4043739 L106.090117,23.2750345 L100.210012,23.2750345 L100.210012,19.7460208 C100.210012,17.8886452 101.128778,16.8361323 103.027562,16.8361323 L106.090117,16.8361323 L106.090117,10.0257551 L101.557536,10.0257551 C95.0649204,10.0257551 92.2473698,14.6691941 92.2473698,19.2507206 L92.2473698,23.2750345 L88.9398105,23.2750345 L88.9398105,29.4043739 L92.2473698,29.4043739 L92.2473698,54.6027697 L100.210012,54.6027697 L100.210012,29.4043739 L106.090117,29.4043739 L106.090117,29.4043739 Z M119.504106,54.6027697 L119.504106,23.2750345 L111.541464,23.2750345 L111.541464,54.6027697 L119.504106,54.6027697 L119.504106,54.6027697 Z M119.626609,16.8361323 L119.626609,10.2734052 L111.418962,10.2734052 L111.418962,16.8361323 L119.626609,16.8361323 L119.626609,16.8361323 Z M154.907238,54.6027697 L154.907238,33.9859005 C154.907238,30.4568868 154.233476,27.4231733 151.66093,24.8228475 C149.884649,23.0273844 147.312102,21.9748715 144.127046,21.9748715 C141.186993,21.9748715 138.246941,23.0892969 136.164404,25.3181476 L136.164404,22.3463467 L128.385515,22.3463467 L128.385515,54.6027697 L136.348157,54.6027697 L136.348157,35.1003258 C136.348157,30.7045369 139.165707,29.2186364 141.677002,29.2186364 C144.188297,29.2186364 146.944596,30.7045369 146.944596,35.1003258 L146.944596,54.6027697 L154.907238,54.6027697 L154.907238,54.6027697 Z M190.187868,38.4436019 C190.187868,33.6144253 190.126617,28.104211 186.94156,24.88476 C185.165278,23.0892969 182.286477,21.9748715 179.162671,21.9748715 C175.916363,21.9748715 173.52757,22.8416468 171.445033,25.1943226 L171.445033,10.5210553 L163.482391,10.5210553 L163.482391,54.6027697 L171.200029,54.6027697 L171.200029,51.5690563 C173.405069,54.0455571 175.793861,54.9742449 179.162671,54.9742449 C182.286477,54.9742449 185.165278,53.8598195 186.94156,52.0643564 C190.126617,48.8449054 190.187868,43.2727786 190.187868,38.4436019 L190.187868,38.4436019 L190.187868,38.4436019 Z M182.225226,38.4436019 C182.225226,43.7061662 181.612715,47.73048 176.835129,47.73048 C172.057544,47.73048 171.445033,43.7061662 171.445033,38.4436019 C171.445033,33.1810377 172.057544,29.2186364 176.835129,29.2186364 C181.612715,29.2186364 182.225226,33.1810377 182.225226,38.4436019 L182.225226,38.4436019 L182.225226,38.4436019 Z M223.447211,38.4436019 C223.447211,32.623825 222.712198,28.9709864 219.833397,25.9372728 C217.873362,23.8322472 214.627054,21.9748715 209.91072,21.9748715 C205.194386,21.9748715 202.009329,23.8322472 200.049294,25.9372728 C197.170493,28.9709864 196.435479,32.623825 196.435479,38.4436019 C196.435479,44.3252914 197.170493,47.9781301 200.049294,51.0118436 C202.009329,53.1168692 205.194386,54.9742449 209.91072,54.9742449 C214.627054,54.9742449 217.873362,53.1168692 219.833397,51.0118436 C222.712198,47.9781301 223.447211,44.3252914 223.447211,38.4436019 L223.447211,38.4436019 L223.447211,38.4436019 Z M215.484569,38.4436019 C215.484569,41.786878 215.300816,44.634854 213.647037,46.306492 C212.72827,47.2351799 211.503248,47.73048 209.91072,47.73048 C208.318191,47.73048 207.154421,47.2351799 206.235654,46.306492 C204.581874,44.634854 204.398121,41.786878 204.398121,38.4436019 C204.398121,35.1003258 204.581874,32.3142624 206.235654,30.6426243 C207.154421,29.7139366 208.318191,29.2186364 209.91072,29.2186364 C211.503248,29.2186364 212.72827,29.7139366 213.647037,30.6426243 C215.300816,32.3142624 215.484569,35.1003258 215.484569,38.4436019 L215.484569,38.4436019 L215.484569,38.4436019 Z M258.11533,54.6027697 L247.090133,38.1340394 L257.686573,22.3463467 L248.131402,22.3463467 L242.680054,31.5713122 L237.289958,22.3463467 L227.734788,22.3463467 L238.331227,38.1340394 L227.30603,54.6027697 L236.861201,54.6027697 L242.680054,44.9444166 L248.560159,54.6027697 L258.11533,54.6027697 L258.11533,54.6027697 Z M288.740877,54.6027697 L288.740877,22.3463467 L280.778234,22.3463467 L280.778234,54.6027697 L288.740877,54.6027697 L288.740877,54.6027697 Z M288.802127,16.8361323 L288.802127,10.2734052 L280.655733,10.2734052 L280.655733,16.8361323 L288.802127,16.8361323 L288.802127,16.8361323 Z M323.286493,38.4436019 C323.286493,32.623825 322.55148,28.9709864 319.672679,25.9372728 C317.712643,23.8322472 314.466335,21.9748715 309.750002,21.9748715 C305.033667,21.9748715 301.84861,23.8322472 299.888575,25.9372728 C297.009774,28.9709864 296.274761,32.623825 296.274761,38.4436019 C296.274761,44.3252914 297.009774,47.9781301 299.888575,51.0118436 C301.84861,53.1168692 305.033667,54.9742449 309.750002,54.9742449 C314.466335,54.9742449 317.712643,53.1168692 319.672679,51.0118436 C322.55148,47.9781301 323.286493,44.3252914 323.286493,38.4436019 L323.286493,38.4436019 L323.286493,38.4436019 Z M315.323851,38.4436019 C315.323851,41.786878 315.140098,44.634854 313.486318,46.306492 C312.567551,47.2351799 311.34253,47.73048 309.750002,47.73048 C308.157473,47.73048 306.993702,47.2351799 306.074936,46.306492 C304.421157,44.634854 304.237403,41.786878 304.237403,38.4436019 C304.237403,35.1003258 304.421157,32.3142624 306.074936,30.6426243 C306.993702,29.7139366 308.157473,29.2186364 309.750002,29.2186364 C311.34253,29.2186364 312.567551,29.7139366 313.486318,30.6426243 C315.140098,32.3142624 315.323851,35.1003258 315.323851,38.4436019 L315.323851,38.4436019 L315.323851,38.4436019 Z" id="finbox.io" fill="#FFFFFF"></path>
                            <path d="M273.442202,54.9455237 L273.442202,45.7824707 L264.315789,45.7824707 L264.315789,54.9455237 L273.442202,54.9455237 L273.442202,54.9455237 Z" id="Path-Copy" fill="#4299FF"></path>
                        </g>
                    </g>
                </g>
            </g>
        </g>
    </g>
</svg>