<?xml version="1.0" encoding="UTF-8" standalone="no"?>
<svg width="1023px" height="1023px" viewBox="0 0 1023 1023" version="1.1" xmlns="http://www.w3.org/2000/svg" xmlns:xlink="http://www.w3.org/1999/xlink" xmlns:sketch="http://www.bohemiancoding.com/sketch/ns">
    <!-- Generator: Sketch 3.3.3 (12081) - http://www.bohemiancoding.com/sketch -->
    <title>favicon-1024-black</title>
    <desc>Created with Sketch.</desc>
    <defs></defs>
    <g id="Page-1" stroke="none" stroke-width="1" fill="none" fill-rule="evenodd" sketch:type="MSPage">
        <g id="short-logos" sketch:type="MSArtboardGroup" transform="translate(-1882.000000, -1250.000000)">
            <g id="favicon-1024-black" sketch:type="MSLayerGroup" transform="translate(1882.000000, 1250.000000)">
                <g id="square-logo" sketch:type="MSShapeGroup">
                    <rect id="background-rectangle" stroke="#4299FF" stroke-width="52.4211658" fill="#FFFFFF" x="50.8293975" y="44.8217528" width="914.381763" height="518.060029"></rect>
                    <path d="M0.817226197,0.472451077 L1022.77331,0.472451077 L1022.77331,1022.42854 L0.817226197,1022.42854 L0.817226197,0.472451077 L0.817226197,0.472451077 Z" id="Shape" stroke="#4299FF" stroke-width="81.756487" fill="#151515"></path>
                    <path d="M55.2409796,508.43536 L41.7787233,508.43536 L41.7787233,961.037189 L980.907126,961.037189 L980.907126,515.038978 L983.054067,515.038978 C983.054067,515.038978 983.054067,73.2119882 983.054067,192.641707 L596.354137,461.3061 L320.139901,353.840343 L55.2409796,508.43536 Z" id="Rectangle-322" fill="#4299FF"></path>
                    <path d="M941.717504,940.332533 L941.717504,789.712546 C941.717504,763.93056 936.926965,741.770359 918.637258,722.769412 C906.002608,709.653348 887.716868,701.963766 865.068881,701.963766 C844.165792,701.963766 823.262704,710.10762 808.458828,726.391196 L808.458828,704.677007 L753.149518,704.677007 L753.149518,940.332533 L809.763536,940.332533 L809.763536,797.856399 C809.763536,765.743517 829.798141,754.886423 847.651623,754.886423 C865.505105,754.886423 885.103486,765.743517 885.103486,797.856399 L885.103486,940.332533 L941.717504,940.332533 L941.717504,940.332533 Z M702.230214,664.424402 L702.230214,616.478086 L643.875263,616.478086 L643.875263,664.424402 L702.230214,664.424402 L702.230214,664.424402 Z M701.36173,940.332533 L701.36173,711.466305 L644.747712,711.466305 L644.747712,940.332533 L701.36173,940.332533 L701.36173,940.332533 Z M594.625509,756.245108 L594.625509,711.466305 L552.819332,711.466305 L552.819332,685.684319 C552.819332,672.113984 559.350804,664.428532 572.853937,664.428532 L594.629474,664.428532 L594.629474,614.673388 L562.404376,614.673388 C516.239919,614.673388 496.209279,648.595097 496.209279,682.066664 L496.209279,711.466305 L472.692809,711.466305 L472.692809,756.245108 L496.209279,756.245108 L496.209279,940.332533 L552.823298,940.332533 L552.823298,756.245108 L594.625509,756.245108 L594.625509,756.245108 Z" id="Shape" fill="#FFFFFF"></path>
                </g>
            </g>
        </g>
    </g>
</svg>