<?xml version="1.0" encoding="UTF-8" standalone="no"?>
<svg width="112px" height="24px" viewBox="0 0 112 24" version="1.1" xmlns="http://www.w3.org/2000/svg" xmlns:xlink="http://www.w3.org/1999/xlink" xmlns:sketch="http://www.bohemiancoding.com/sketch/ns">
    <!-- Generator: Sketch 3.3.3 (12081) - http://www.bohemiancoding.com/sketch -->
    <title>logo-22</title>
    <desc>Created with Sketch.</desc>
    <defs></defs>
    <g id="Page-1" stroke="none" stroke-width="1" fill="none" fill-rule="evenodd" sketch:type="MSPage">
        <g id="logos" sketch:type="MSArtboardGroup" transform="translate(-59.000000, -257.000000)">
            <g id="logo-22" sketch:type="MSLayerGroup" transform="translate(60.000000, 258.000000)">
                <g id="square-logo" sketch:type="MSShapeGroup">
                    <rect id="background-rectangle" fill="#FFFFFF" x="1.10614553" y="1.06936709" width="18.804474" height="9.92506329"></rect>
                    <path d="M19.9106195,11.1392405 L19.9106195,20.9194937 L1.10614553,20.9194937 L1.10614553,11.1392405 L0.558603491,11.1392405 L6.47322869,7.60433065 L12.3878539,9.96093722 L20.6683292,4.0694208 C20.6683292,1.45045764 20.6683292,11.1392405 20.6683292,11.1392405 L19.9106195,11.1392405 Z" id="Rectangle-322" fill="#4299FF"></path>
                    <path d="M19.5949698,20.8837252 L19.5949698,17.7834896 C19.5949698,17.2528148 19.4948114,16.7966878 19.1124187,16.4055882 C18.8482593,16.1356181 18.4659495,15.9773422 17.9924359,15.9773422 C17.5554039,15.9773422 17.1183718,16.1449685 16.8088592,16.480136 L16.8088592,16.0331893 L15.6524778,16.0331893 L15.6524778,20.8837252 L16.8361375,20.8837252 L16.8361375,17.9511158 C16.8361375,17.2901312 17.2550117,17.0666578 17.628284,17.0666578 C18.0015563,17.0666578 18.4113101,17.2901312 18.4113101,17.9511158 L18.4113101,20.8837252 L19.5949698,20.8837252 L19.5949698,20.8837252 Z M14.5878807,15.2046634 L14.5878807,14.2177766 L13.3678224,14.2177766 L13.3678224,15.2046634 L14.5878807,15.2046634 L14.5878807,15.2046634 Z M14.5697228,20.8837252 L14.5697228,16.1729345 L13.3860632,16.1729345 L13.3860632,20.8837252 L14.5697228,20.8837252 L14.5697228,20.8837252 Z M12.3381314,17.0946239 L12.3381314,16.1729345 L11.4640673,16.1729345 L11.4640673,15.6422597 C11.4640673,15.3629393 11.6006243,15.2047484 11.8829415,15.2047484 L12.3382143,15.2047484 L12.3382143,14.1806302 L11.6644669,14.1806302 C10.6992819,14.1806302 10.2804906,14.8788463 10.2804906,15.567797 L10.2804906,16.1729345 L9.78881914,16.1729345 L9.78881914,17.0946239 L10.2804906,17.0946239 L10.2804906,20.8837252 L11.4641502,20.8837252 L11.4641502,17.0946239 L12.3381314,17.0946239 L12.3381314,17.0946239 Z" id="Shape" fill="#FFFFFF"></path>
                    <path d="M0.0807268889,0.156518225 L21.2089275,0.156518225 L21.2089275,21.8175674 L0.0807268889,21.8175674 L0.0807268889,0.156518225 L0.0807268889,0.156518225 Z M1.16829458,20.702577 L20.1215687,20.702577 L20.1215687,1.27140155 L1.16829458,1.27140155 L1.16829458,20.702577 L1.16829458,20.702577 Z" id="Shape" stroke="#4299FF" stroke-width="1.1028951" fill="#4299FF"></path>
                </g>
                <path d="M36.4021432,9.85105903 L36.4021432,7.77651335 L34.3845337,7.77651335 L34.3845337,6.58207795 C34.3845337,5.95342775 34.6997852,5.59719263 35.3513049,5.59719263 L36.4021432,5.59719263 L36.4021432,3.29214187 L34.8469025,3.29214187 C32.6191255,3.29214187 31.6523543,4.86376739 31.6523543,6.4144379 L31.6523543,7.77651335 L30.517449,7.77651335 L30.517449,9.85105903 L31.6523543,9.85105903 L31.6523543,18.3797468 L34.3845337,18.3797468 L34.3845337,9.85105903 L36.4021432,9.85105903 Z M41.0048147,18.3797468 L41.0048147,7.77651335 L38.2726352,7.77651335 L38.2726352,18.3797468 L41.0048147,18.3797468 Z M41.0468482,5.59719263 L41.0468482,3.3759619 L38.2306017,3.3759619 L38.2306017,5.59719263 L41.0468482,5.59719263 Z M53.1525049,18.3797468 L53.1525049,11.4017295 C53.1525049,10.2072941 52.9213205,9.18049881 52.0386163,8.30038852 C51.4291301,7.69269332 50.546426,7.3364582 49.4535542,7.3364582 C48.4447495,7.3364582 47.4359448,7.71364833 46.7213748,8.46802858 L46.7213748,7.46218824 L44.0522456,7.46218824 L44.0522456,18.3797468 L46.7844251,18.3797468 L46.7844251,11.7789197 C46.7844251,10.2911142 47.7511963,9.78819401 48.6128836,9.78819401 C49.474571,9.78819401 50.4203254,10.2911142 50.4203254,11.7789197 L50.4203254,18.3797468 L53.1525049,18.3797468 Z M65.2581615,12.91049 C65.2581615,11.2759995 65.2371448,9.41100389 64.144273,8.32134353 C63.5347868,7.71364833 62.5469988,7.3364582 61.4751438,7.3364582 C60.3612553,7.3364582 59.5416014,7.6298283 58.8270314,8.42611856 L58.8270314,3.45978193 L56.094852,3.45978193 L56.094852,18.3797468 L58.7429644,18.3797468 L58.7429644,17.3529515 C59.4995679,18.1911518 60.3192217,18.5054769 61.4751438,18.5054769 C62.5469988,18.5054769 63.5347868,18.1282868 64.144273,17.5205916 C65.2371448,16.4309312 65.2581615,14.5449806 65.2581615,12.91049 L65.2581615,12.91049 Z M62.5259821,12.91049 C62.5259821,14.6916656 62.3158144,16.0537411 60.6765068,16.0537411 C59.0371991,16.0537411 58.8270314,14.6916656 58.8270314,12.91049 C58.8270314,11.1293145 59.0371991,9.78819401 60.6765068,9.78819401 C62.3158144,9.78819401 62.5259821,11.1293145 62.5259821,12.91049 L62.5259821,12.91049 Z M76.6702649,12.91049 C76.6702649,10.9407194 76.4180638,9.70437398 75.4302758,8.67757864 C74.7577393,7.96510841 73.6438508,7.3364582 72.0255599,7.3364582 C70.407269,7.3364582 69.3143972,7.96510841 68.6418607,8.67757864 C67.6540727,9.70437398 67.4018716,10.9407194 67.4018716,12.91049 C67.4018716,14.9012157 67.6540727,16.1375611 68.6418607,17.1643564 C69.3143972,17.8768267 70.407269,18.5054769 72.0255599,18.5054769 C73.6438508,18.5054769 74.7577393,17.8768267 75.4302758,17.1643564 C76.4180638,16.1375611 76.6702649,14.9012157 76.6702649,12.91049 L76.6702649,12.91049 Z M73.9380855,12.91049 C73.9380855,14.0420604 73.8750352,15.0059907 73.3075825,15.5717759 C72.9923311,15.886101 72.5719958,16.0537411 72.0255599,16.0537411 C71.479124,16.0537411 71.0798054,15.886101 70.764554,15.5717759 C70.1971013,15.0059907 70.134051,14.0420604 70.134051,12.91049 C70.134051,11.7789197 70.1971013,10.8359444 70.764554,10.2701592 C71.0798054,9.95583406 71.479124,9.78819401 72.0255599,9.78819401 C72.5719958,9.78819401 72.9923311,9.95583406 73.3075825,10.2701592 C73.8750352,10.8359444 73.9380855,11.7789197 73.9380855,12.91049 L73.9380855,12.91049 Z M88.5657539,18.3797468 L84.7827362,12.805715 L88.4186366,7.46218824 L85.1400212,7.46218824 L83.2695291,10.5844843 L81.4200538,7.46218824 L78.1414385,7.46218824 L81.7773388,12.805715 L77.9943211,18.3797468 L81.2729365,18.3797468 L83.2695291,15.1107658 L85.2871386,18.3797468 L88.5657539,18.3797468 Z M93.3785931,18.3797468 L93.3785931,15.2784058 L90.2470951,15.2784058 L90.2470951,18.3797468 L93.3785931,18.3797468 Z M99.0741364,18.3797468 L99.0741364,7.46218824 L96.341957,7.46218824 L96.341957,18.3797468 L99.0741364,18.3797468 Z M99.0951532,5.59719263 L99.0951532,3.3759619 L96.2999235,3.3759619 L96.2999235,5.59719263 L99.0951532,5.59719263 Z M110.927592,12.91049 C110.927592,10.9407194 110.675391,9.70437398 109.687603,8.67757864 C109.015066,7.96510841 107.901178,7.3364582 106.282887,7.3364582 C104.664596,7.3364582 103.571724,7.96510841 102.899188,8.67757864 C101.9114,9.70437398 101.659199,10.9407194 101.659199,12.91049 C101.659199,14.9012157 101.9114,16.1375611 102.899188,17.1643564 C103.571724,17.8768267 104.664596,18.5054769 106.282887,18.5054769 C107.901178,18.5054769 109.015066,17.8768267 109.687603,17.1643564 C110.675391,16.1375611 110.927592,14.9012157 110.927592,12.91049 L110.927592,12.91049 Z M108.195412,12.91049 C108.195412,14.0420604 108.132362,15.0059907 107.56491,15.5717759 C107.249658,15.886101 106.829323,16.0537411 106.282887,16.0537411 C105.736451,16.0537411 105.337132,15.886101 105.021881,15.5717759 C104.454428,15.0059907 104.391378,14.0420604 104.391378,12.91049 C104.391378,11.7789197 104.454428,10.8359444 105.021881,10.2701592 C105.337132,9.95583406 105.736451,9.78819401 106.282887,9.78819401 C106.829323,9.78819401 107.249658,9.95583406 107.56491,10.2701592 C108.132362,10.8359444 108.195412,11.7789197 108.195412,12.91049 L108.195412,12.91049 Z" id="finbox.io" fill="#4299FF" sketch:type="MSShapeGroup"></path>
            </g>
        </g>
    </g>
</svg>